<svg width="32" height="32" viewBox="0 0 32 32" xmlns="http://www.w3.org/2000/svg">
    <defs>
        <linearGradient id="grad" x1="0%" y1="0%" x2="100%" y2="100%">
            <stop offset="0%" stop-color="#D946EF"/>
            <stop offset="100%" stop-color="#0EA5E9"/>
        </linearGradient>
    </defs>

    <rect x="2" y="2" width="28" height="28" rx="8" fill="url(#grad)"/>

    <path
            d="M18 3H8a2 2 0 0 0-2 2v14a2 2 0 0 0 2 2h12a2 2 0 0 0 2-2V7z"
            transform="translate(4 4) scale(0.9)"
            fill="none"
            stroke="white"
            stroke-width="2"
            stroke-linecap="round"
            stroke-linejoin="round"
    />
    <path
            d="M18 3v4h4"
            transform="translate(4 4) scale(0.9)"
            fill="none"
            stroke="white"
            stroke-width="2"
            stroke-linecap="round"
            stroke-linejoin="round"
    />
    <path
            d="M10 13h8M10 17h8M10 9h2"
            transform="translate(4 4) scale(0.9)"
            fill="none"
            stroke="white"
            stroke-width="2"
            stroke-linecap="round"
    />
</svg>